<?xml version="1.0" standalone="no"?>
<!DOCTYPE svg PUBLIC "-//W3C//DTD SVG 20010904//EN"
 "http://www.w3.org/TR/2001/REC-SVG-20010904/DTD/svg10.dtd">
<svg version="1.0" xmlns="http://www.w3.org/2000/svg"
 width="820.000000pt" height="928.000000pt" viewBox="0 0 820.000000 928.000000"
 preserveAspectRatio="xMidYMid meet">
<metadata>
Created by potrace 1.16, written by Peter Selinger 2001-2019
</metadata>
<g transform="translate(0.000000,928.000000) scale(0.100000,-0.100000)"
fill="#000000" stroke="none">
<path d="M1639 8331 c-26 -4 -53 -12 -60 -18 -8 -6 -31 -14 -51 -18 -21 -4
-42 -13 -49 -21 -6 -8 -17 -14 -23 -14 -16 0 -105 -50 -160 -90 -115 -85 -212
-189 -298 -320 -65 -101 -102 -188 -144 -345 l-24 -90 3 -2280 2 -2280 22 -70
c70 -229 137 -347 282 -498 75 -78 190 -172 231 -190 8 -4 42 -22 75 -40 33
-18 85 -41 115 -51 30 -10 75 -25 100 -34 25 -9 114 -20 200 -26 l155 -11 5
-481 5 -480 27 -41 c31 -48 63 -80 114 -120 36 -27 41 -28 154 -28 112 0 118
1 161 29 55 37 186 161 340 322 26 27 143 144 260 261 118 116 288 286 377
377 l164 165 1506 3 1507 3 70 23 c39 12 102 32 140 43 39 12 77 27 85 34 8 7
25 16 38 20 103 31 377 284 448 414 61 110 74 137 74 145 0 5 9 27 19 50 11
23 30 75 43 116 l23 75 0 2310 0 2310 -23 75 c-13 41 -29 89 -37 105 -7 17
-23 53 -35 80 -54 129 -219 325 -340 405 -13 8 -35 25 -50 37 -15 12 -38 27
-51 33 -13 5 -31 14 -39 19 -51 32 -173 78 -240 91 -52 10 -5051 11 -5121 1z
m2821 -1047 c288 -43 405 -75 613 -169 254 -114 428 -236 643 -450 144 -143
172 -177 266 -320 114 -172 172 -274 182 -317 10 -46 -16 -34 -44 19 -72 137
-290 366 -459 482 -148 101 -346 190 -571 255 -158 46 -585 46 -800 0 -264
-57 -571 -222 -779 -420 -298 -283 -443 -554 -527 -984 -23 -115 -27 -468 -7
-535 7 -22 26 -98 44 -170 62 -252 153 -436 324 -655 104 -132 189 -213 335
-317 251 -179 560 -300 810 -318 52 -3 113 -8 135 -10 71 -7 328 15 420 37
330 76 642 249 850 469 33 35 68 75 77 89 14 22 17 23 23 7 15 -37 -217 -308
-381 -444 -317 -265 -612 -410 -996 -493 -139 -29 -254 -40 -443 -40 -246 0
-343 13 -600 82 -143 38 -229 73 -401 162 -411 214 -713 525 -928 956 -99 200
-137 310 -189 555 -25 118 -30 170 -34 329 -6 205 4 310 43 496 103 487 310
845 682 1183 227 207 585 399 883 473 244 60 607 82 829 48z m482 -693 c239
-32 526 -163 748 -340 107 -86 268 -268 333 -378 17 -28 -49 18 -78 55 -72 92
-188 178 -340 254 -193 97 -274 117 -513 125 -168 5 -257 -6 -407 -54 -104
-32 -312 -139 -396 -203 -122 -92 -244 -239 -314 -378 -44 -88 -98 -239 -97
-272 0 -14 -9 -56 -20 -94 -19 -63 -20 -86 -15 -250 6 -193 20 -267 83 -436
31 -83 161 -286 231 -361 131 -140 346 -267 583 -345 110 -36 122 -37 282 -42
144 -3 183 -1 275 18 172 34 293 87 476 208 54 35 101 62 104 58 12 -11 -204
-197 -318 -274 -61 -41 -245 -132 -334 -166 -178 -66 -393 -101 -570 -93 -324
15 -621 120 -870 306 -213 159 -413 428 -495 665 -136 391 -143 634 -30 975
58 177 78 217 177 371 133 203 351 397 568 504 172 84 323 131 500 155 84 11
330 7 437 -8z m314 -486 c103 -18 241 -58 299 -87 78 -39 233 -158 295 -225
114 -125 220 -325 266 -499 23 -91 23 -307 0 -416 -18 -83 -86 -257 -130 -332
-41 -69 -141 -190 -199 -240 -70 -59 -210 -148 -277 -177 -30 -13 -58 -27 -61
-32 -26 -38 -422 -71 -559 -47 -162 29 -292 86 -445 195 -68 49 -207 182 -226
218 -18 32 18 19 66 -25 107 -97 201 -155 315 -194 46 -15 85 -19 235 -19 207
1 246 10 390 92 182 105 273 199 363 378 88 175 110 369 63 560 -46 187 -166
363 -330 484 -84 62 -143 91 -261 130 -86 28 -107 31 -220 31 -146 0 -220 -19
-377 -98 -107 -53 -238 -166 -294 -253 -31 -46 -48 -57 -56 -33 -5 15 81 142
163 244 103 127 319 270 478 315 158 46 345 57 502 30z"/>
</g>
</svg>
